<svg xmlns="http://www.w3.org/2000/svg" height="48" viewBox="0 -960 960 960" width="48" fill="#198754"><path d="M244.694-410.001h76.46l248.153-245.538q6.615-6.23 6.615-14.384t-6.517-14.672l-52.348-48.886q-5.903-5.518-12.941-5.518-7.038 0-12.654 5.615L244.694-483v72.999Zm197.692 0h275.613v-58.383H500.77l-58.384 58.383ZM84.001-97.464v-713.842q0-28.341 21.176-49.517 21.176-21.176 49.517-21.176h650.612q28.341 0 49.517 21.176 21.176 21.176 21.176 49.517v488.612q0 28.341-21.176 49.517-21.176 21.176-49.517 21.176H238.539L84.002-97.464Z"/></svg>
